<svg width="622.1" height="72.002" viewBox="0 0 622.1 72.002" xmlns="http://www.w3.org/2000/svg"><g id="svgGroup" stroke-linecap="round" fill-rule="evenodd" font-size="9pt" stroke="#000" stroke-width="0.25mm" fill="#000" style="stroke:#000;stroke-width:0.25mm;fill:#000"><path d="M 447 70.8 L 438 70.8 L 438 18.8 L 446.7 18.8 L 446.7 27.5 Q 449.5 23.3 453.8 20.45 A 17.205 17.205 0 0 1 463.002 17.609 A 20.858 20.858 0 0 1 463.6 17.6 A 20.994 20.994 0 0 1 468.017 18.04 Q 471.003 18.682 473.285 20.263 A 13.128 13.128 0 0 1 473.75 20.6 A 15.751 15.751 0 0 1 479.198 28.29 A 19.154 19.154 0 0 1 479.3 28.6 Q 482.4 24 486.65 20.8 A 15.669 15.669 0 0 1 493.441 17.917 A 21.446 21.446 0 0 1 497.2 17.6 A 21.437 21.437 0 0 1 502.088 18.123 Q 505.674 18.962 508.163 21.151 A 12.994 12.994 0 0 1 509.85 22.95 A 18.992 18.992 0 0 1 513.261 30.223 Q 514 33.272 514 36.9 L 514 70.8 L 505 70.8 L 505 37.6 A 19.042 19.042 0 0 0 504.663 33.911 Q 504.227 31.706 503.228 29.962 A 10.982 10.982 0 0 0 502.5 28.85 A 7.974 7.974 0 0 0 496.687 25.554 A 10.678 10.678 0 0 0 495.6 25.5 A 11.926 11.926 0 0 0 488.841 27.628 A 15.996 15.996 0 0 0 487.25 28.85 Q 483.4 32.2 480.5 36.7 L 480.5 70.8 L 471.5 70.8 L 471.5 37.6 A 19.042 19.042 0 0 0 471.163 33.911 Q 470.727 31.706 469.728 29.962 A 10.982 10.982 0 0 0 469 28.85 A 7.974 7.974 0 0 0 463.187 25.554 A 10.678 10.678 0 0 0 462.1 25.5 A 12.02 12.02 0 0 0 455.781 27.329 A 16.244 16.244 0 0 0 453.8 28.75 Q 449.9 32 447 36.4 L 447 70.8 Z M 368.6 65.2 L 362 72 L 328 38.6 L 328 70.8 L 318.5 70.8 L 318.5 0.8 L 328 0.8 L 328 32.7 L 357.8 0.5 L 364.2 6.4 L 336.9 34.8 L 368.6 65.2 Z M 377.1 52.6 L 377.1 18.8 L 386.1 18.8 L 386.1 51.4 A 22.981 22.981 0 0 0 386.354 54.935 Q 386.642 56.781 387.257 58.27 A 10.136 10.136 0 0 0 388.7 60.75 A 8.404 8.404 0 0 0 393.813 63.771 A 12.807 12.807 0 0 0 396.3 64 Q 400.4 64 404.25 62.35 Q 408.1 60.7 411.1 57.9 L 411.1 18.8 L 420.1 18.8 L 420.1 57.3 A 15.602 15.602 0 0 0 420.202 59.154 Q 420.534 61.917 421.95 62.95 Q 423.8 64.3 426 64.3 L 424.1 71.3 Q 414.8 71.3 412.6 63.9 Q 409.1 67.5 404.5 69.75 Q 399.9 72 394.6 72 Q 390.1 72 386.1 70.1 A 14.441 14.441 0 0 1 380.59 65.462 A 18.266 18.266 0 0 1 379.6 63.95 A 16.24 16.24 0 0 1 377.936 59.857 Q 377.1 56.705 377.1 52.6 Z M 237.3 70.8 L 228.3 70.8 L 228.3 18.8 L 237 18.8 L 237 27.5 Q 239.8 23.3 244.15 20.45 A 17.316 17.316 0 0 1 251.256 17.826 A 22.629 22.629 0 0 1 254.5 17.6 A 23.225 23.225 0 0 1 259.565 18.118 Q 264.659 19.257 267.65 22.9 Q 271.775 27.926 271.988 36.009 A 33.764 33.764 0 0 1 272 36.9 L 272 70.8 L 263 70.8 L 263 37.9 A 19.265 19.265 0 0 0 262.658 34.16 Q 262.219 31.945 261.219 30.197 A 10.966 10.966 0 0 0 260.35 28.9 A 8.579 8.579 0 0 0 254.073 25.547 A 12.061 12.061 0 0 0 253 25.5 A 13.122 13.122 0 0 0 246.151 27.464 A 17.353 17.353 0 0 0 244.3 28.75 Q 240.2 32 237.3 36.4 L 237.3 70.8 Z M 138.6 70.8 L 129.2 70.8 L 108.3 21.2 L 116.5 17.8 L 134.2 60.6 L 151.9 17.8 L 159.6 21.2 L 138.6 70.8 Z M 9.5 70.8 L 0 70.8 L 0 1 Q 4.1 0.5 9.05 0.25 A 200.806 200.806 0 0 1 17.98 0.004 A 221.966 221.966 0 0 1 19.3 0 Q 26.87 0 32.472 2.082 A 26.011 26.011 0 0 1 34.1 2.75 A 24.606 24.606 0 0 1 39.182 5.779 A 19.374 19.374 0 0 1 43.4 10.3 Q 46.6 15.1 46.6 21.3 A 25.258 25.258 0 0 1 45.892 27.423 A 19.268 19.268 0 0 1 42.9 34 A 22.312 22.312 0 0 1 35.349 40.63 A 28.065 28.065 0 0 1 32.6 41.95 A 34.774 34.774 0 0 1 24.511 44.174 A 47.194 47.194 0 0 1 17.3 44.7 Q 13.1 44.7 9.5 44.4 L 9.5 70.8 Z M 91.2 23 L 91.2 18.8 L 99.4 18.8 L 99.4 58.2 A 12.15 12.15 0 0 0 99.502 59.836 Q 99.834 62.27 101.25 63.15 Q 103.1 64.3 105.3 64.3 L 103.4 71.3 A 17.722 17.722 0 0 1 99.135 70.828 Q 93.498 69.428 91.903 63.88 A 13.59 13.59 0 0 1 91.8 63.5 A 21.307 21.307 0 0 1 88.69 66.926 A 28.498 28.498 0 0 1 85.55 69.35 Q 81.6 72 75.5 72 Q 69 72 63.7 68.7 A 22.947 22.947 0 0 1 56.287 61.174 A 27.923 27.923 0 0 1 55.25 59.35 A 27.228 27.228 0 0 1 52.62 51.408 A 36.644 36.644 0 0 1 52.1 45.1 A 33.142 33.142 0 0 1 53.097 36.832 A 27.968 27.968 0 0 1 55.25 31.1 Q 58.4 24.9 63.95 21.25 A 22.297 22.297 0 0 1 75.145 17.644 A 27.388 27.388 0 0 1 76.7 17.6 A 22.584 22.584 0 0 1 81.494 18.091 A 18.703 18.703 0 0 1 84.85 19.15 A 26.002 26.002 0 0 1 89.137 21.444 A 22.103 22.103 0 0 1 91.2 23 Z M 202.2 23 L 202.2 18.8 L 210.4 18.8 L 210.4 58.2 A 12.15 12.15 0 0 0 210.502 59.836 Q 210.834 62.27 212.25 63.15 Q 214.1 64.3 216.3 64.3 L 214.4 71.3 A 17.722 17.722 0 0 1 210.135 70.828 Q 204.498 69.428 202.903 63.88 A 13.59 13.59 0 0 1 202.8 63.5 A 21.307 21.307 0 0 1 199.69 66.926 A 28.498 28.498 0 0 1 196.55 69.35 Q 192.6 72 186.5 72 Q 180 72 174.7 68.7 A 22.947 22.947 0 0 1 167.287 61.174 A 27.923 27.923 0 0 1 166.25 59.35 A 27.228 27.228 0 0 1 163.62 51.408 A 36.644 36.644 0 0 1 163.1 45.1 A 33.142 33.142 0 0 1 164.097 36.832 A 27.968 27.968 0 0 1 166.25 31.1 Q 169.4 24.9 174.95 21.25 A 22.297 22.297 0 0 1 186.145 17.644 A 27.388 27.388 0 0 1 187.7 17.6 A 22.584 22.584 0 0 1 192.494 18.091 A 18.703 18.703 0 0 1 195.85 19.15 A 26.002 26.002 0 0 1 200.137 21.444 A 22.103 22.103 0 0 1 202.2 23 Z M 565.1 23 L 565.1 18.8 L 573.3 18.8 L 573.3 58.2 A 12.15 12.15 0 0 0 573.402 59.836 Q 573.734 62.27 575.15 63.15 Q 577 64.3 579.2 64.3 L 577.3 71.3 A 17.722 17.722 0 0 1 573.035 70.828 Q 567.398 69.428 565.803 63.88 A 13.59 13.59 0 0 1 565.7 63.5 A 21.307 21.307 0 0 1 562.59 66.926 A 28.498 28.498 0 0 1 559.45 69.35 Q 555.5 72 549.4 72 Q 542.9 72 537.6 68.7 A 22.947 22.947 0 0 1 530.187 61.174 A 27.923 27.923 0 0 1 529.15 59.35 A 27.228 27.228 0 0 1 526.52 51.408 A 36.644 36.644 0 0 1 526 45.1 A 33.142 33.142 0 0 1 526.997 36.832 A 27.968 27.968 0 0 1 529.15 31.1 Q 532.3 24.9 537.85 21.25 A 22.297 22.297 0 0 1 549.045 17.644 A 27.388 27.388 0 0 1 550.6 17.6 A 22.584 22.584 0 0 1 555.394 18.091 A 18.703 18.703 0 0 1 558.75 19.15 A 26.002 26.002 0 0 1 563.037 21.444 A 22.103 22.103 0 0 1 565.1 23 Z M 600.2 70.8 L 591.2 70.8 L 591.2 18.8 L 599.9 18.8 L 599.9 30.1 Q 601.2 26.8 603.4 23.95 Q 605.6 21.1 608.9 19.35 A 14.817 14.817 0 0 1 613.58 17.826 A 19.459 19.459 0 0 1 616.6 17.6 Q 618.1 17.6 619.6 17.75 A 18.972 18.972 0 0 1 620.655 17.884 Q 621.155 17.963 621.582 18.063 A 8.817 8.817 0 0 1 622.1 18.2 L 619.4 27.5 A 9.763 9.763 0 0 0 617.255 26.888 Q 616.159 26.7 614.9 26.7 A 12.958 12.958 0 0 0 608.27 28.546 A 15.609 15.609 0 0 0 607.85 28.8 Q 604.522 30.887 602.378 35.243 A 22.927 22.927 0 0 0 602.35 35.3 Q 600.587 38.908 600.27 44.128 A 39.09 39.09 0 0 0 600.2 46.5 L 600.2 70.8 Z M 90.4 57.5 L 90.4 29.6 Q 87.7 27.7 84.45 26.55 Q 81.2 25.4 77.6 25.4 A 15.924 15.924 0 0 0 72.629 26.154 A 14.024 14.024 0 0 0 69.15 27.85 A 16.301 16.301 0 0 0 64.131 33.274 A 19.962 19.962 0 0 0 63.4 34.65 A 20.663 20.663 0 0 0 61.647 40.327 A 27.678 27.678 0 0 0 61.3 44.8 Q 61.3 50.4 63.4 54.75 A 17.602 17.602 0 0 0 66.506 59.296 A 15.697 15.697 0 0 0 69.2 61.55 Q 72.9 64 77.5 64 Q 81.3 64 84.7 62.15 Q 88.1 60.3 90.4 57.5 Z M 201.4 57.5 L 201.4 29.6 Q 198.7 27.7 195.45 26.55 Q 192.2 25.4 188.6 25.4 A 15.924 15.924 0 0 0 183.629 26.154 A 14.024 14.024 0 0 0 180.15 27.85 A 16.301 16.301 0 0 0 175.131 33.274 A 19.962 19.962 0 0 0 174.4 34.65 A 20.663 20.663 0 0 0 172.647 40.327 A 27.678 27.678 0 0 0 172.3 44.8 Q 172.3 50.4 174.4 54.75 A 17.602 17.602 0 0 0 177.506 59.296 A 15.697 15.697 0 0 0 180.2 61.55 Q 183.9 64 188.5 64 Q 192.3 64 195.7 62.15 Q 199.1 60.3 201.4 57.5 Z M 564.3 57.5 L 564.3 29.6 Q 561.6 27.7 558.35 26.55 Q 555.1 25.4 551.5 25.4 A 15.924 15.924 0 0 0 546.529 26.154 A 14.024 14.024 0 0 0 543.05 27.85 A 16.301 16.301 0 0 0 538.031 33.274 A 19.962 19.962 0 0 0 537.3 34.65 A 20.663 20.663 0 0 0 535.547 40.327 A 27.678 27.678 0 0 0 535.2 44.8 Q 535.2 50.4 537.3 54.75 A 17.602 17.602 0 0 0 540.406 59.296 A 15.697 15.697 0 0 0 543.1 61.55 Q 546.8 64 551.4 64 Q 555.2 64 558.6 62.15 Q 562 60.3 564.3 57.5 Z M 9.5 8.4 L 9.5 36.3 Q 10.6 36.438 12.031 36.552 A 96.255 96.255 0 0 0 13.4 36.65 Q 15.7 36.8 18.5 36.8 A 31.831 31.831 0 0 0 23.88 36.375 Q 26.759 35.88 29.063 34.811 A 15.221 15.221 0 0 0 32.3 32.8 A 12.896 12.896 0 0 0 37.155 23.358 A 17.32 17.32 0 0 0 37.2 22.1 A 14.452 14.452 0 0 0 36.439 17.307 A 12.136 12.136 0 0 0 32.5 11.8 A 15.462 15.462 0 0 0 27.419 9.137 Q 25.193 8.427 22.5 8.16 A 34.58 34.58 0 0 0 19.1 8 A 131.125 131.125 0 0 0 15.842 8.039 A 109.939 109.939 0 0 0 14 8.1 A 91.274 91.274 0 0 0 11.117 8.264 A 75.041 75.041 0 0 0 9.5 8.4 Z" vector-effect="non-scaling-stroke"/></g></svg>